<mxfile host="app.diagrams.net" modified="2023-11-28T17:14:02.241Z" agent="Mozilla/5.0 (Windows NT 10.0; Win64; x64; rv:120.0) Gecko/20100101 Firefox/120.0" etag="-O4Pzr0g25QiebREeKk_" version="22.1.4" type="github">
  <diagram name="Página-1" id="dlSTq7105ikgvRyv2S8Z">
    <mxGraphModel dx="1980" dy="1021" grid="1" gridSize="10" guides="1" tooltips="1" connect="1" arrows="1" fold="1" page="1" pageScale="1" pageWidth="850" pageHeight="1100" math="0" shadow="0">
      <root>
        <mxCell id="0" />
        <mxCell id="1" parent="0" />
        <mxCell id="OXw7m-pFn7I3aG2ilj5t-1" value="Inicio de Sesion" style="rounded=1;whiteSpace=wrap;html=1;" vertex="1" parent="1">
          <mxGeometry x="460" y="70" width="120" height="60" as="geometry" />
        </mxCell>
        <mxCell id="OXw7m-pFn7I3aG2ilj5t-7" style="edgeStyle=orthogonalEdgeStyle;rounded=0;orthogonalLoop=1;jettySize=auto;html=1;entryX=0.5;entryY=0;entryDx=0;entryDy=0;" edge="1" parent="1" source="OXw7m-pFn7I3aG2ilj5t-2" target="OXw7m-pFn7I3aG2ilj5t-4">
          <mxGeometry relative="1" as="geometry" />
        </mxCell>
        <mxCell id="OXw7m-pFn7I3aG2ilj5t-8" style="edgeStyle=orthogonalEdgeStyle;rounded=0;orthogonalLoop=1;jettySize=auto;html=1;entryX=0.5;entryY=0;entryDx=0;entryDy=0;" edge="1" parent="1" source="OXw7m-pFn7I3aG2ilj5t-2" target="OXw7m-pFn7I3aG2ilj5t-5">
          <mxGeometry relative="1" as="geometry" />
        </mxCell>
        <mxCell id="OXw7m-pFn7I3aG2ilj5t-2" value="Verificar Tipo Usuario" style="rounded=1;whiteSpace=wrap;html=1;" vertex="1" parent="1">
          <mxGeometry x="460" y="160" width="120" height="60" as="geometry" />
        </mxCell>
        <mxCell id="OXw7m-pFn7I3aG2ilj5t-3" value="" style="endArrow=classic;html=1;rounded=0;exitX=0.5;exitY=1;exitDx=0;exitDy=0;" edge="1" parent="1" source="OXw7m-pFn7I3aG2ilj5t-1" target="OXw7m-pFn7I3aG2ilj5t-2">
          <mxGeometry width="50" height="50" relative="1" as="geometry">
            <mxPoint x="340" y="480" as="sourcePoint" />
            <mxPoint x="390" y="430" as="targetPoint" />
          </mxGeometry>
        </mxCell>
        <mxCell id="OXw7m-pFn7I3aG2ilj5t-10" style="edgeStyle=orthogonalEdgeStyle;rounded=0;orthogonalLoop=1;jettySize=auto;html=1;exitX=1;exitY=0.5;exitDx=0;exitDy=0;entryX=0.5;entryY=0;entryDx=0;entryDy=0;" edge="1" parent="1" source="OXw7m-pFn7I3aG2ilj5t-4" target="OXw7m-pFn7I3aG2ilj5t-9">
          <mxGeometry relative="1" as="geometry" />
        </mxCell>
        <mxCell id="OXw7m-pFn7I3aG2ilj5t-4" value="Personal Administrativo" style="rounded=1;whiteSpace=wrap;html=1;" vertex="1" parent="1">
          <mxGeometry x="350" y="280" width="120" height="60" as="geometry" />
        </mxCell>
        <mxCell id="OXw7m-pFn7I3aG2ilj5t-11" style="edgeStyle=orthogonalEdgeStyle;rounded=0;orthogonalLoop=1;jettySize=auto;html=1;exitX=0;exitY=0.5;exitDx=0;exitDy=0;" edge="1" parent="1" source="OXw7m-pFn7I3aG2ilj5t-5">
          <mxGeometry relative="1" as="geometry">
            <mxPoint x="520" y="370" as="targetPoint" />
          </mxGeometry>
        </mxCell>
        <mxCell id="OXw7m-pFn7I3aG2ilj5t-5" value="Personal Médico / Médico" style="rounded=1;whiteSpace=wrap;html=1;" vertex="1" parent="1">
          <mxGeometry x="570" y="280" width="120" height="60" as="geometry" />
        </mxCell>
        <mxCell id="OXw7m-pFn7I3aG2ilj5t-9" value="" style="rounded=1;whiteSpace=wrap;html=1;" vertex="1" parent="1">
          <mxGeometry x="460" y="370" width="120" height="60" as="geometry" />
        </mxCell>
        <mxCell id="OXw7m-pFn7I3aG2ilj5t-31" style="edgeStyle=orthogonalEdgeStyle;rounded=0;orthogonalLoop=1;jettySize=auto;html=1;exitX=0.5;exitY=1;exitDx=0;exitDy=0;entryX=0;entryY=0.5;entryDx=0;entryDy=0;" edge="1" parent="1" source="OXw7m-pFn7I3aG2ilj5t-12" target="OXw7m-pFn7I3aG2ilj5t-21">
          <mxGeometry relative="1" as="geometry">
            <Array as="points">
              <mxPoint x="280" y="520" />
              <mxPoint x="210" y="520" />
              <mxPoint x="210" y="890" />
            </Array>
          </mxGeometry>
        </mxCell>
        <mxCell id="OXw7m-pFn7I3aG2ilj5t-33" style="edgeStyle=orthogonalEdgeStyle;rounded=0;orthogonalLoop=1;jettySize=auto;html=1;exitX=0.5;exitY=1;exitDx=0;exitDy=0;entryX=0;entryY=0.5;entryDx=0;entryDy=0;" edge="1" parent="1" source="OXw7m-pFn7I3aG2ilj5t-12" target="OXw7m-pFn7I3aG2ilj5t-19">
          <mxGeometry relative="1" as="geometry">
            <Array as="points">
              <mxPoint x="280" y="520" />
              <mxPoint x="210" y="520" />
              <mxPoint x="210" y="810" />
            </Array>
          </mxGeometry>
        </mxCell>
        <mxCell id="OXw7m-pFn7I3aG2ilj5t-34" style="edgeStyle=orthogonalEdgeStyle;rounded=0;orthogonalLoop=1;jettySize=auto;html=1;exitX=0.5;exitY=1;exitDx=0;exitDy=0;entryX=0;entryY=0.5;entryDx=0;entryDy=0;" edge="1" parent="1" source="OXw7m-pFn7I3aG2ilj5t-12" target="OXw7m-pFn7I3aG2ilj5t-20">
          <mxGeometry relative="1" as="geometry">
            <Array as="points">
              <mxPoint x="280" y="520" />
              <mxPoint x="210" y="520" />
              <mxPoint x="210" y="730" />
            </Array>
          </mxGeometry>
        </mxCell>
        <mxCell id="OXw7m-pFn7I3aG2ilj5t-35" style="edgeStyle=orthogonalEdgeStyle;rounded=0;orthogonalLoop=1;jettySize=auto;html=1;exitX=0.5;exitY=1;exitDx=0;exitDy=0;entryX=0;entryY=0.5;entryDx=0;entryDy=0;" edge="1" parent="1" source="OXw7m-pFn7I3aG2ilj5t-12" target="OXw7m-pFn7I3aG2ilj5t-18">
          <mxGeometry relative="1" as="geometry">
            <Array as="points">
              <mxPoint x="280" y="520" />
              <mxPoint x="210" y="520" />
              <mxPoint x="210" y="650" />
            </Array>
          </mxGeometry>
        </mxCell>
        <mxCell id="OXw7m-pFn7I3aG2ilj5t-36" style="edgeStyle=orthogonalEdgeStyle;rounded=0;orthogonalLoop=1;jettySize=auto;html=1;exitX=0.5;exitY=1;exitDx=0;exitDy=0;entryX=0;entryY=0.5;entryDx=0;entryDy=0;" edge="1" parent="1" source="OXw7m-pFn7I3aG2ilj5t-12" target="OXw7m-pFn7I3aG2ilj5t-17">
          <mxGeometry relative="1" as="geometry">
            <Array as="points">
              <mxPoint x="280" y="520" />
              <mxPoint x="210" y="520" />
              <mxPoint x="210" y="570" />
            </Array>
          </mxGeometry>
        </mxCell>
        <mxCell id="OXw7m-pFn7I3aG2ilj5t-12" value="Gestion Pacientes" style="rounded=1;whiteSpace=wrap;html=1;" vertex="1" parent="1">
          <mxGeometry x="220" y="450" width="120" height="60" as="geometry" />
        </mxCell>
        <mxCell id="OXw7m-pFn7I3aG2ilj5t-13" value="Gestion de suministros" style="rounded=1;whiteSpace=wrap;html=1;" vertex="1" parent="1">
          <mxGeometry x="390" y="450" width="120" height="60" as="geometry" />
        </mxCell>
        <mxCell id="OXw7m-pFn7I3aG2ilj5t-15" value="Reportes y Estadisticas" style="rounded=1;whiteSpace=wrap;html=1;" vertex="1" parent="1">
          <mxGeometry x="520" y="450" width="120" height="60" as="geometry" />
        </mxCell>
        <mxCell id="OXw7m-pFn7I3aG2ilj5t-16" value="Citas y Agendamiento" style="rounded=1;whiteSpace=wrap;html=1;" vertex="1" parent="1">
          <mxGeometry x="50" y="450" width="120" height="60" as="geometry" />
        </mxCell>
        <mxCell id="OXw7m-pFn7I3aG2ilj5t-17" value="Detalles de paciente" style="rounded=1;whiteSpace=wrap;html=1;" vertex="1" parent="1">
          <mxGeometry x="250" y="540" width="120" height="60" as="geometry" />
        </mxCell>
        <mxCell id="OXw7m-pFn7I3aG2ilj5t-18" value="Historia Clinica" style="rounded=1;whiteSpace=wrap;html=1;" vertex="1" parent="1">
          <mxGeometry x="250" y="620" width="120" height="60" as="geometry" />
        </mxCell>
        <mxCell id="OXw7m-pFn7I3aG2ilj5t-19" value="Resultados de pruebas " style="rounded=1;whiteSpace=wrap;html=1;" vertex="1" parent="1">
          <mxGeometry x="250" y="780" width="120" height="60" as="geometry" />
        </mxCell>
        <mxCell id="OXw7m-pFn7I3aG2ilj5t-20" value="Información demográfica" style="rounded=1;whiteSpace=wrap;html=1;" vertex="1" parent="1">
          <mxGeometry x="250" y="700" width="120" height="60" as="geometry" />
        </mxCell>
        <mxCell id="OXw7m-pFn7I3aG2ilj5t-21" value="Imagenes medicas" style="rounded=1;whiteSpace=wrap;html=1;" vertex="1" parent="1">
          <mxGeometry x="250" y="860" width="120" height="60" as="geometry" />
        </mxCell>
        <mxCell id="OXw7m-pFn7I3aG2ilj5t-37" style="edgeStyle=orthogonalEdgeStyle;rounded=0;orthogonalLoop=1;jettySize=auto;html=1;exitX=0.5;exitY=1;exitDx=0;exitDy=0;entryX=0;entryY=0.5;entryDx=0;entryDy=0;" edge="1" parent="1" target="OXw7m-pFn7I3aG2ilj5t-40">
          <mxGeometry relative="1" as="geometry">
            <mxPoint x="110" y="510" as="sourcePoint" />
            <Array as="points">
              <mxPoint x="110" y="520" />
              <mxPoint x="40" y="520" />
              <mxPoint x="40" y="650" />
            </Array>
          </mxGeometry>
        </mxCell>
        <mxCell id="OXw7m-pFn7I3aG2ilj5t-38" style="edgeStyle=orthogonalEdgeStyle;rounded=0;orthogonalLoop=1;jettySize=auto;html=1;exitX=0.5;exitY=1;exitDx=0;exitDy=0;entryX=0;entryY=0.5;entryDx=0;entryDy=0;" edge="1" parent="1" target="OXw7m-pFn7I3aG2ilj5t-39">
          <mxGeometry relative="1" as="geometry">
            <mxPoint x="110" y="510" as="sourcePoint" />
            <Array as="points">
              <mxPoint x="110" y="520" />
              <mxPoint x="40" y="520" />
              <mxPoint x="40" y="570" />
            </Array>
          </mxGeometry>
        </mxCell>
        <mxCell id="OXw7m-pFn7I3aG2ilj5t-39" value="Programacion de citas" style="rounded=1;whiteSpace=wrap;html=1;" vertex="1" parent="1">
          <mxGeometry x="80" y="540" width="120" height="60" as="geometry" />
        </mxCell>
        <mxCell id="OXw7m-pFn7I3aG2ilj5t-40" value="Historial de citas" style="rounded=1;whiteSpace=wrap;html=1;" vertex="1" parent="1">
          <mxGeometry x="80" y="620" width="120" height="60" as="geometry" />
        </mxCell>
        <mxCell id="OXw7m-pFn7I3aG2ilj5t-41" style="edgeStyle=orthogonalEdgeStyle;rounded=0;orthogonalLoop=1;jettySize=auto;html=1;exitX=0.5;exitY=1;exitDx=0;exitDy=0;entryX=0;entryY=0.5;entryDx=0;entryDy=0;" edge="1" parent="1" target="OXw7m-pFn7I3aG2ilj5t-42" source="OXw7m-pFn7I3aG2ilj5t-16">
          <mxGeometry relative="1" as="geometry">
            <mxPoint x="110" y="620" as="sourcePoint" />
            <Array as="points">
              <mxPoint x="110" y="520" />
              <mxPoint x="40" y="520" />
              <mxPoint x="40" y="730" />
            </Array>
          </mxGeometry>
        </mxCell>
        <mxCell id="OXw7m-pFn7I3aG2ilj5t-42" value="Cancelar cita" style="rounded=1;whiteSpace=wrap;html=1;" vertex="1" parent="1">
          <mxGeometry x="80" y="700" width="120" height="60" as="geometry" />
        </mxCell>
        <mxCell id="OXw7m-pFn7I3aG2ilj5t-44" style="edgeStyle=orthogonalEdgeStyle;rounded=0;orthogonalLoop=1;jettySize=auto;html=1;exitX=0.5;exitY=1;exitDx=0;exitDy=0;entryX=0;entryY=0.5;entryDx=0;entryDy=0;" edge="1" parent="1" target="OXw7m-pFn7I3aG2ilj5t-47">
          <mxGeometry relative="1" as="geometry">
            <mxPoint x="450" y="510" as="sourcePoint" />
            <Array as="points">
              <mxPoint x="450" y="520" />
              <mxPoint x="380" y="520" />
              <mxPoint x="380" y="650" />
            </Array>
          </mxGeometry>
        </mxCell>
        <mxCell id="OXw7m-pFn7I3aG2ilj5t-45" style="edgeStyle=orthogonalEdgeStyle;rounded=0;orthogonalLoop=1;jettySize=auto;html=1;exitX=0.5;exitY=1;exitDx=0;exitDy=0;entryX=0;entryY=0.5;entryDx=0;entryDy=0;" edge="1" parent="1" target="OXw7m-pFn7I3aG2ilj5t-46">
          <mxGeometry relative="1" as="geometry">
            <mxPoint x="450" y="510" as="sourcePoint" />
            <Array as="points">
              <mxPoint x="450" y="520" />
              <mxPoint x="380" y="520" />
              <mxPoint x="380" y="570" />
            </Array>
          </mxGeometry>
        </mxCell>
        <mxCell id="OXw7m-pFn7I3aG2ilj5t-46" value="Informacion de suministros" style="rounded=1;whiteSpace=wrap;html=1;" vertex="1" parent="1">
          <mxGeometry x="420" y="540" width="120" height="60" as="geometry" />
        </mxCell>
        <mxCell id="OXw7m-pFn7I3aG2ilj5t-47" value="Historia Clinica" style="rounded=1;whiteSpace=wrap;html=1;" vertex="1" parent="1">
          <mxGeometry x="420" y="620" width="120" height="60" as="geometry" />
        </mxCell>
      </root>
    </mxGraphModel>
  </diagram>
</mxfile>
